<svg id="Capa_1" data-name="Capa 1" xmlns="http://www.w3.org/2000/svg" xmlns:xlink="http://www.w3.org/1999/xlink" viewBox="0 0 1200.29 1902.53"><defs><style>.cls-1,.cls-3,.cls-4{fill:none;}.cls-2{clip-path:url(#clip-path);}.cls-3,.cls-4{stroke-miterlimit:10;stroke-width:4.43px;}.cls-3{stroke:url(#Degradado_sin_nombre);}.cls-4{stroke:url(#Degradado_sin_nombre_2);}.cls-5{fill:#1d2037;}.cls-6{opacity:0.72;}.cls-7{fill:#fff;}</style><clipPath id="clip-path"><rect class="cls-1" x="677.5" y="-2072" width="1440" height="2017"/></clipPath><linearGradient id="Degradado_sin_nombre" x1="660.05" y1="1911.02" x2="660.05" y2="2564" gradientTransform="translate(0 -2406)" gradientUnits="userSpaceOnUse"><stop offset="0" stop-color="#30bfd8"/><stop offset="1"/></linearGradient><linearGradient id="Degradado_sin_nombre_2" x1="660.02" y1="1985.06" x2="660.02" y2="2489.92" gradientTransform="translate(0 -2406)" gradientUnits="userSpaceOnUse"><stop offset="0" stop-color="#eb297c"/><stop offset="1" stop-color="#af0e5b"/></linearGradient></defs><g id="Capa_1-2" data-name="Capa 1"><g class="cls-2"><path class="cls-3" d="M660.05,152C837.18,152,980.78,8.51,980.78-168.5S837.18-489,660.05-489,339.31-345.52,339.31-168.5,482.91,152,660.05,152Z"/><path class="cls-4" d="M834.41,5.75c96.31-96.24,96.31-252.29,0-348.53S582-439,485.64-342.78s-96.31,252.29,0,348.53S738.1,102,834.41,5.75Z"/></g></g><g id="Capa_2" data-name="Capa 2"><rect class="cls-5" width="1200.29" height="1908.95"/><g class="cls-6"><path class="cls-7" d="M524.74,1055.79v-5.24h-6.39v5.24Z"/><path class="cls-7" d="M707.51,853v-5.24h-6.39V853Z"/><path class="cls-7" d="M605.66,1097v-5.24h-6.39V1097Z"/><path class="cls-7" d="M629.29,1146.44v-2.52h-3.08v2.52Z"/><path class="cls-7" d="M29.22,674.05v-2.52H26.14v2.52Z"/><path class="cls-7" d="M6.34,429.35v-2.52H3.26v2.52Z"/><path class="cls-7" d="M44.42,591.71V589.2H41.34v2.51Z"/><path class="cls-7" d="M183.35,1095.61v-2.52h-3.08v2.52Z"/><path class="cls-7" d="M479.14,946.14v-2.52h-3.08v2.52Z"/><path class="cls-7" d="M328.12,1019.66v-2.52H325v2.52Z"/><path class="cls-7" d="M688.25,801v-2.52h-3.08V801Z"/><path class="cls-7" d="M403.3,1074.12v-2.52h-3.08v2.52Z"/><path class="cls-7" d="M257.55,1004.1v-2.52h-3.08v2.52Z"/><path class="cls-7" d="M592.84,569.15v-2.52h-3.08v2.52Z"/><path class="cls-7" d="M607.2,709.5V707h-3.08v2.52Z"/><path class="cls-7" d="M403.81,271.71v-2.53h-3.08v2.53Z"/><path class="cls-7" d="M532.69,270.45v-2.52h-3.08v2.52Z"/><path class="cls-7" d="M662.07,192.72v-2.55H659v2.52Z"/><path class="cls-7" d="M459.12,200.38v-2.53H456v2.53Z"/><path class="cls-7" d="M364.85,195.24v-2.52h-3.08v2.52Z"/><path class="cls-7" d="M106.1,292.43v-2.52H103v2.52Z"/><path class="cls-7" d="M146.55,200.38v-2.53h-3.06v2.53Z"/><path class="cls-7" d="M263.23,517v-2.49h-3.08V517Z"/><path class="cls-7" d="M26.16,204.26v-2.53H23.07v2.53Z"/><path class="cls-7" d="M478.21,740.26v-2.52h-3.09v2.52Z"/><path class="cls-7" d="M248.27,796.35v-2.53h-3.08v2.53Z"/><path class="cls-7" d="M152,995.57v-2.51h-3.07v2.51Z"/><path class="cls-7" d="M57.31,1020.92v-2.52H54.23v2.52Z"/><path class="cls-7" d="M579.77,825.21v-2.52h-3.08v2.52Z"/><path class="cls-7" d="M339.54,644.08v-2.5h-3.08v2.53Z"/><path class="cls-7" d="M457.58,571.67v-2.52h-3.07v2.52Z"/><path class="cls-7" d="M331.2,741.52V739h-3.08v2.52Z"/><path class="cls-7" d="M342.62,498.92V496.4h-3.08v2.52Z"/><path class="cls-7" d="M94.94,420.5V418H91.86v2.51Z"/><path class="cls-7" d="M648.15,583.83v-2.52h-3.09v2.52Z"/><path class="cls-7" d="M342.62,829v-2.52h-3.08V829Z"/><path class="cls-7" d="M479.75,830.25v-2.52h-3.08v2.52Z"/><path class="cls-7" d="M656.89,930.9v-2.49h-3.08v2.52Z"/><path class="cls-7" d="M366.4,938.94v-2.52h-3.08v2.52Z"/><path class="cls-7" d="M287.6,1109.33v-2.52h-3.08v2.52Z"/><path class="cls-7" d="M175.34,911.07v-2.52h-3.08v2.52Z"/><path class="cls-7" d="M64.91,1145.18v-2.52H61.83v2.52Z"/><path class="cls-7" d="M578.22,977v-2.53h-3.08V977Z"/><path class="cls-7" d="M361,313.07v-2.53h-3.08v2.53Z"/><path class="cls-7" d="M374.64,413.79v-2.53h-3.09v2.53Z"/><path class="cls-7" d="M550.34,378.78v-2.52h-3.08v2.52Z"/><path class="cls-7" d="M681,358v-2.53h-3.08V358Z"/><path class="cls-7" d="M3.27,826.47v-2.53H.19v2.53Z"/><path class="cls-7" d="M160.6,683.17v-2.52h-3.09v2.52Z"/><path class="cls-7" d="M222.8,605v-2.52h-3.07V605Z"/><path class="cls-7" d="M74.39,921.31v-5.24H68v5.24Z"/><path class="cls-7" d="M653,450.11v-5.23h-6.4v5.23Z"/><path class="cls-7" d="M220,261.87v-5.23h-6.4v5.23Z"/><path class="cls-7" d="M98.14,174.24V169h-6.4v5.23Z"/><path class="cls-7" d="M269.63,362v-5.24h-6.4V362Z"/><path class="cls-7" d="M531.15,201.73V196.5h-6.4v5.23Z"/><path class="cls-7" d="M240.09,153.79v-5.24h-6.4v5.24Z"/><path class="cls-7" d="M214,533.78v-5.24h-6.36v5.24Z"/><path class="cls-7" d="M49.27,514.51v-5.27h-6.4v5.27Z"/><path class="cls-7" d="M441.84,692.8v-5.23h-6.39v5.23Z"/><path class="cls-7" d="M605.66,644.17v-5.23h-6.39v5.23Z"/><path class="cls-7" d="M464,475.06v-5.23h-6.4v5.23Z"/><path class="cls-7" d="M608.86,309.29V304h-6.4v5.25Z"/><path class="cls-7" d="M126.24,814V808.8h-6.4V814Z"/><path class="cls-7" d="M249.94,912.43v-5.24h-6.4v5.24Z"/><path class="cls-7" d="M724.77,225.13v-5.24h-6.39v5.24Z"/><path class="cls-7" d="M684.21,139v-5.23H677.8V139Z"/></g><g class="cls-6"><path class="cls-7" d="M795.56,649.54V647h-3.08v2.51Z"/><path class="cls-7" d="M772.68,404.85v-2.53H769.6v2.53Z"/><path class="cls-7" d="M810.76,567.21v-2.52h-3.08v2.52Z"/><path class="cls-7" d="M949.69,1071.11v-2.52h-3.08v2.52Z"/><path class="cls-7" d="M1094.46,995.16v-2.53h-3.1v2.53Z"/><path class="cls-7" d="M1169.64,1049.62v-2.53h-3.08v2.53Z"/><path class="cls-7" d="M1023.89,979.6v-2.52h-3.08v2.52Z"/><path class="cls-7" d="M1170.15,247.2v-2.52h-3.08v2.52Z"/><path class="cls-7" d="M1131.2,170.74v-2.53h-3.08v2.53Z"/><path class="cls-7" d="M872.44,267.93v-2.52h-3.08v2.52Z"/><path class="cls-7" d="M912.9,175.87v-2.52h-3.07v2.52Z"/><path class="cls-7" d="M1029.57,492.5V490h-3.08v2.53Z"/><path class="cls-7" d="M792.5,179.75v-2.52h-3.09v2.52Z"/><path class="cls-7" d="M1014.61,771.84v-2.52h-3.08v2.52Z"/><path class="cls-7" d="M918.34,971.07v-2.52h-3.07v2.52Z"/><path class="cls-7" d="M823.65,996.42V993.9h-3.08v2.52Z"/><path class="cls-7" d="M1105.88,619.57v-2.49h-3.08v2.52Z"/><path class="cls-7" d="M1097.54,717V714.5h-3.08V717Z"/><path class="cls-7" d="M1109,474.42v-2.53h-3.08v2.53Z"/><path class="cls-7" d="M861.28,396v-2.52H858.2V396Z"/><path class="cls-7" d="M1109,804.49V802h-3.08v2.53Z"/><path class="cls-7" d="M1132.74,914.44v-2.53h-3.08v2.53Z"/><path class="cls-7" d="M1053.94,1084.83v-2.52h-3.08v2.52Z"/><path class="cls-7" d="M941.68,886.57v-2.52H938.6v2.52Z"/><path class="cls-7" d="M831.25,1120.68v-2.52h-3.08v2.52Z"/><path class="cls-7" d="M1127.37,288.56V286h-3.08v2.52Z"/><path class="cls-7" d="M1141,389.28v-2.52h-3.09v2.52Z"/><path class="cls-7" d="M769.61,802v-2.52h-3.08V802Z"/><path class="cls-7" d="M926.94,658.66v-2.52h-3.09v2.52Z"/><path class="cls-7" d="M989.14,580.49V578h-3.07v2.53Z"/><path class="cls-7" d="M840.74,896.8v-5.23h-6.4v5.23Z"/><path class="cls-7" d="M986.33,237.37v-5.23h-6.39v5.23Z"/><path class="cls-7" d="M864.48,149.73v-5.24h-6.4v5.23Z"/><path class="cls-7" d="M1036,337.46v-5.23h-6.4v5.23Z"/><path class="cls-7" d="M1006.43,129.29v-5.24H1000v5.24Z"/><path class="cls-7" d="M980.34,509.27V504H974v5.23Z"/><path class="cls-7" d="M815.61,490v-5.26h-6.39V490Z"/><path class="cls-7" d="M892.58,789.54v-5.25h-6.39v5.25Z"/><path class="cls-7" d="M1016.28,887.93v-5.24h-6.4v5.24Z"/></g><g class="cls-6"><path class="cls-7" d="M724,1906.63v-5.24h-6.4v5.24Z"/><path class="cls-7" d="M45.71,1727.71v-2.52H42.63v2.52Z"/><path class="cls-7" d="M22.83,1483v-2.52H19.75V1483Z"/><path class="cls-7" d="M60.91,1645.38v-2.52H57.83v2.52Z"/><path class="cls-7" d="M704.74,1854.64v-2.52h-3.08v2.52Z"/><path class="cls-7" d="M609.33,1622.81v-2.52h-3.08v2.52Z"/><path class="cls-7" d="M623.69,1763.16v-2.52h-3.08v2.52Z"/><path class="cls-7" d="M420.3,1325.37v-2.52h-3.08v2.52Z"/><path class="cls-7" d="M549.18,1324.11v-2.52H546.1v2.52Z"/><path class="cls-7" d="M678.56,1246.38v-2.55h-3.08v2.52Z"/><path class="cls-7" d="M475.61,1254v-2.52h-3.08V1254Z"/><path class="cls-7" d="M381.34,1248.9v-2.52h-3.08v2.52Z"/><path class="cls-7" d="M122.59,1346.1v-2.53h-3.08v2.53Z"/><path class="cls-7" d="M163,1254v-2.52H160V1254Z"/><path class="cls-7" d="M279.72,1570.66v-2.49h-3.08v2.52Z"/><path class="cls-7" d="M42.64,1257.92v-2.52H39.56v2.52Z"/><path class="cls-7" d="M494.7,1793.92v-2.52h-3.09v2.52Z"/><path class="cls-7" d="M264.76,1850v-2.52h-3.08V1850Z"/><path class="cls-7" d="M596.26,1878.87v-2.52h-3.08v2.52Z"/><path class="cls-7" d="M356,1697.74v-2.5H353v2.53Z"/><path class="cls-7" d="M474.07,1625.34v-2.53H471v2.53Z"/><path class="cls-7" d="M347.69,1795.19v-2.52h-3.08v2.52Z"/><path class="cls-7" d="M359.11,1552.58v-2.52H356v2.52Z"/><path class="cls-7" d="M111.43,1474.17v-2.52h-3.08v2.52Z"/><path class="cls-7" d="M664.64,1637.49V1635h-3.09v2.52Z"/><path class="cls-7" d="M359.11,1882.65v-2.52H356v2.52Z"/><path class="cls-7" d="M496.24,1883.91v-2.52h-3.08v2.52Z"/><path class="cls-7" d="M377.51,1366.73v-2.52h-3.08v2.52Z"/><path class="cls-7" d="M391.13,1467.45v-2.52H388v2.52Z"/><path class="cls-7" d="M566.83,1432.44v-2.52h-3.08v2.52Z"/><path class="cls-7" d="M697.5,1411.66v-2.52h-3.08v2.52Z"/><path class="cls-7" d="M19.76,1880.13v-2.52H16.68v2.52Z"/><path class="cls-7" d="M177.09,1736.83v-2.52H174v2.52Z"/><path class="cls-7" d="M239.29,1658.65v-2.52h-3.07v2.52Z"/><path class="cls-7" d="M669.51,1503.78v-5.24h-6.4v5.24Z"/><path class="cls-7" d="M236.48,1315.54v-5.24h-6.4v5.24Z"/><path class="cls-7" d="M114.63,1227.9v-5.25h-6.4v5.24Z"/><path class="cls-7" d="M286.12,1415.63v-5.24h-6.4v5.24Z"/><path class="cls-7" d="M547.63,1255.4v-5.24h-6.39v5.24Z"/><path class="cls-7" d="M256.58,1207.45v-5.24h-6.4v5.24Z"/><path class="cls-7" d="M230.48,1587.44v-5.24h-6.36v5.24Z"/><path class="cls-7" d="M65.76,1568.17v-5.26h-6.4v5.26Z"/><path class="cls-7" d="M458.33,1746.46v-5.23h-6.39v5.24Z"/><path class="cls-7" d="M622.15,1697.83v-5.23h-6.39v5.23Z"/><path class="cls-7" d="M480.47,1528.72v-5.23h-6.4v5.23Z"/><path class="cls-7" d="M625.35,1363v-5.24H619V1363Z"/><path class="cls-7" d="M142.73,1867.7v-5.24h-6.4v5.24Z"/><path class="cls-7" d="M741.26,1278.79v-5.24h-6.39v5.24Z"/><path class="cls-7" d="M700.7,1192.63v-5.24h-6.41v5.24Z"/></g><g class="cls-6"><path class="cls-7" d="M796.4,1726.56V1724h-3.08v2.52Z"/><path class="cls-7" d="M773.51,1481.86v-2.52h-3.08v2.52Z"/><path class="cls-7" d="M811.59,1644.23v-2.52h-3.08v2.52Z"/><path class="cls-7" d="M1171,1324.22v-2.52h-3.08v2.52Z"/><path class="cls-7" d="M1132,1247.75v-2.52H1129v2.52Z"/><path class="cls-7" d="M873.27,1345v-2.53h-3.08V1345Z"/><path class="cls-7" d="M913.73,1252.89v-2.52h-3.07v2.52Z"/><path class="cls-7" d="M1030.41,1569.51V1567h-3.08v2.53Z"/><path class="cls-7" d="M793.33,1256.77v-2.52h-3.08v2.52Z"/><path class="cls-7" d="M1015.45,1848.86v-2.52h-3.08v2.52Z"/><path class="cls-7" d="M1106.72,1696.59v-2.49h-3.09v2.52Z"/><path class="cls-7" d="M1098.37,1794v-2.52h-3.08V1794Z"/><path class="cls-7" d="M1109.79,1551.43v-2.52h-3.07v2.52Z"/><path class="cls-7" d="M862.11,1473v-2.52H859V1473Z"/><path class="cls-7" d="M1109.79,1881.5V1879h-3.07v2.52Z"/><path class="cls-7" d="M1128.2,1365.58v-2.52h-3.08v2.52Z"/><path class="cls-7" d="M1141.82,1466.3v-2.52h-3.09v2.52Z"/><path class="cls-7" d="M770.45,1879v-2.52h-3.08V1879Z"/><path class="cls-7" d="M927.78,1735.68v-2.52h-3.09v2.52Z"/><path class="cls-7" d="M990,1657.5V1655h-3.06v2.52Z"/><path class="cls-7" d="M987.17,1314.39v-5.24h-6.4v5.24Z"/><path class="cls-7" d="M865.32,1226.75v-5.25h-6.4v5.24Z"/><path class="cls-7" d="M1036.8,1414.48v-5.24h-6.39v5.24Z"/><path class="cls-7" d="M1007.26,1206.3v-5.24h-6.39v5.24Z"/><path class="cls-7" d="M981.17,1586.29v-5.24H974.8v5.24Z"/><path class="cls-7" d="M816.45,1567v-5.26h-6.4V1567Z"/><path class="cls-7" d="M893.42,1866.55v-5.24H887v5.24Z"/></g></g></svg>