<svg xmlns="http://www.w3.org/2000/svg" xmlns:xlink="http://www.w3.org/1999/xlink" viewBox="0 0 1200.29 1902.53"><defs><style>.cls-1,.cls-5,.cls-6{fill:none;}.cls-2{clip-path:url(#clip-path);}.cls-3{clip-path:url(#clip-path-2);}.cls-4{mask:url(#mask);}.cls-5,.cls-6{stroke-miterlimit:10;stroke-width:4.43px;}.cls-5{stroke:url(#Degradado_sin_nombre_9);}.cls-6{stroke:url(#Degradado_sin_nombre_10);}.cls-7{fill:#1d2037;}.cls-8{opacity:0.72;}.cls-9{fill:#fff;}</style><clipPath id="clip-path"><rect class="cls-1" x="-843.5" y="-2068" width="1440" height="2017"/></clipPath><clipPath id="clip-path-2"><rect class="cls-1" x="677.5" y="-2072" width="1440" height="2017"/></clipPath><mask id="mask" x="221.5" y="-542" width="853" height="696.23" maskUnits="userSpaceOnUse"/><linearGradient id="Degradado_sin_nombre_9" x1="660.05" y1="-1599.21" x2="660.05" y2="-2252.19" gradientTransform="matrix(1, 0, 0, -1, 0, -2094.19)" gradientUnits="userSpaceOnUse"><stop offset="0" stop-color="#30bfd8"/><stop offset="1"/></linearGradient><linearGradient id="Degradado_sin_nombre_10" x1="660.02" y1="-1673.25" x2="660.02" y2="-2178.11" gradientTransform="matrix(1, 0, 0, -1, 0, -2094.19)" gradientUnits="userSpaceOnUse"><stop offset="0" stop-color="#eb297c"/><stop offset="1" stop-color="#af0e5b"/></linearGradient></defs><g id="Capa_1" data-name="Capa 1"><g class="cls-3"><g class="cls-4"><path class="cls-5" d="M660.05,152C837.18,152,980.78,8.51,980.78-168.5S837.18-489,660.05-489,339.31-345.52,339.31-168.5,482.91,152,660.05,152Z"/><path class="cls-6" d="M834.41,5.75c96.31-96.24,96.31-252.29,0-348.53S582-439,485.64-342.78s-96.31,252.29,0,348.53S738.1,102,834.41,5.75Z"/></g></g></g><g id="Capa_2" data-name="Capa 2"><rect class="cls-7" width="1200.29" height="1908.95"/><g class="cls-8"><path class="cls-9" d="M867.06,1657.51v-8.65H856.49v8.65Z"/><path class="cls-9" d="M1169.1,1322.33v-8.66h-10.57v8.66Z"/><path class="cls-9" d="M1000.78,1725.57v-8.66H990.22v8.66Z"/><path class="cls-9" d="M1039.83,1807.33v-4.17h-5.09v4.17Z"/><path class="cls-9" d="M48.17,1026.65v-4.16H43.08v4.16Z"/><path class="cls-9" d="M10.35,622.27V618.1H5.26v4.17Z"/><path class="cls-9" d="M73.28,890.59v-4.16H68.19v4.16Z"/><path class="cls-9" d="M302.87,1723.32v-4.16h-5.09v4.16Z"/><path class="cls-9" d="M791.7,1476.31v-4.17h-5.09v4.17Z"/><path class="cls-9" d="M542.12,1597.81v-4.17H537v4.17Z"/><path class="cls-9" d="M1137.27,1236.42v-4.17h-5.09v4.17Z"/><path class="cls-9" d="M666.36,1687.81v-4.17h-5.09v4.17Z"/><path class="cls-9" d="M425.5,1572.1v-4.17h-5.09v4.17Z"/><path class="cls-9" d="M979.59,853.3v-4.17H974.5v4.17Z"/><path class="cls-9" d="M1003.33,1085.24v-4.17h-5.09v4.17Z"/><path class="cls-9" d="M667.21,361.75v-4.17h-5.09v4.17Z"/><path class="cls-9" d="M880.19,359.67V355.5H875.1v4.17Z"/><path class="cls-9" d="M1094,231.21V227h-5.09v4.17Z"/><path class="cls-9" d="M758.62,243.87V239.7h-5.09v4.17Z"/><path class="cls-9" d="M602.83,235.38v-4.17h-5.09v4.17Z"/><path class="cls-9" d="M175.21,396v-4.17h-5.09V396Z"/><path class="cls-9" d="M242.07,243.87V239.7H237v4.17Z"/><path class="cls-9" d="M434.89,767.12V763H429.8v4.17Z"/><path class="cls-9" d="M43.1,250.28v-4.17H38v4.17Z"/><path class="cls-9" d="M790.16,1136.07v-4.16h-5.1v4.16Z"/><path class="cls-9" d="M410.17,1228.76v-4.17h-5.09v4.17Z"/><path class="cls-9" d="M251.07,1558v-4.16H246V1558Z"/><path class="cls-9" d="M94.59,1599.89v-4.16H89.5v4.16Z"/><path class="cls-9" d="M958,1276.46v-4.17h-5.09v4.17Z"/><path class="cls-9" d="M561,977.12V973H555.9v4.17Z"/><path class="cls-9" d="M756.07,857.47V853.3H751v4.17Z"/><path class="cls-9" d="M547.21,1138.16V1134h-5.09v4.17Z"/><path class="cls-9" d="M566.08,737.24v-4.17H561v4.17Z"/><path class="cls-9" d="M156.77,607.65v-4.16h-5.09v4.16Z"/><path class="cls-9" d="M1071,877.56v-4.17h-5.1v4.17Z"/><path class="cls-9" d="M566.08,1282.71v-4.17H561v4.17Z"/><path class="cls-9" d="M792.7,1284.79v-4.17h-5.09v4.17Z"/><path class="cls-9" d="M1085.45,1451.12V1447h-5.09v4.17Z"/><path class="cls-9" d="M605.38,1464.41v-4.17h-5.09v4.17Z"/><path class="cls-9" d="M475.16,1746v-4.17h-5.09V1746Z"/><path class="cls-9" d="M289.64,1418.36v-4.17h-5.09v4.17Z"/><path class="cls-9" d="M107.14,1805.24v-4.16h-5.09v4.16Z"/><path class="cls-9" d="M955.43,1527.37v-4.17h-5.09v4.17Z"/><path class="cls-9" d="M596.5,430.1v-4.17h-5.09v4.17Z"/><path class="cls-9" d="M619,596.55v-4.17H613.9v4.17Z"/><path class="cls-9" d="M909.36,538.69v-4.16h-5.09v4.16Z"/><path class="cls-9" d="M1125.31,504.35v-4.17h-5.1v4.17Z"/><path class="cls-9" d="M5.28,1278.54v-4.17H.19v4.17Z"/><path class="cls-9" d="M265.28,1041.72v-4.16h-5.1v4.16Z"/><path class="cls-9" d="M368.07,912.53v-4.17H363v4.17Z"/><path class="cls-9" d="M122.82,1435.27v-8.65H112.25v8.65Z"/><path class="cls-9" d="M1079.05,656.58v-8.65h-10.57v8.65Z"/><path class="cls-9" d="M363.43,345.5v-8.65H352.86v8.65Z"/><path class="cls-9" d="M162.06,200.67V192H151.49v8.65Z"/><path class="cls-9" d="M445.46,510.91v-8.65H434.89v8.65Z"/><path class="cls-9" d="M877.64,246.11v-8.65H867.07v8.65Z"/><path class="cls-9" d="M396.64,166.88v-8.66H386.07v8.66Z"/><path class="cls-9" d="M353.52,794.84v-8.65H343v8.65Z"/><path class="cls-9" d="M81.3,763V754.3H70.73V763Z"/><path class="cls-9" d="M730.06,1057.64V1049H719.49v8.65Z"/><path class="cls-9" d="M1000.78,977.28v-8.65H990.22v8.65Z"/><path class="cls-9" d="M766.64,697.81v-8.65H756.07v8.65Z"/><path class="cls-9" d="M1006.07,423.85v-8.66H995.5v8.66Z"/><path class="cls-9" d="M208.5,1258v-8.66H197.93V1258Z"/><path class="cls-9" d="M412.92,1420.6v-8.66H402.35v8.66Z"/><path class="cls-9" d="M1197.63,284.77v-8.65h-10.56v8.65Z"/><path class="cls-9" d="M1130.59,142.38v-8.65H1120v8.65Z"/></g></g></svg>